<svg width="17" height="9" viewBox="0 0 17 9" fill="none" xmlns="http://www.w3.org/2000/svg">
<path d="M2.88 6.98L4.44 2.49H5.65L3.55 8H2.19L0.1 2.49H1.32L2.88 6.98ZM6.87172 8.07C6.66505 8.07 6.49172 8 6.35172 7.86C6.21172 7.72 6.14172 7.54667 6.14172 7.34C6.14172 7.13333 6.21172 6.96 6.35172 6.82C6.49172 6.68 6.66505 6.61 6.87172 6.61C7.07172 6.61 7.24172 6.68 7.38172 6.82C7.52172 6.96 7.59172 7.13333 7.59172 7.34C7.59172 7.54667 7.52172 7.72 7.38172 7.86C7.24172 8 7.07172 8.07 6.87172 8.07ZM8.57383 4.26C8.57383 3.10667 8.76716 2.20667 9.15383 1.56C9.54716 0.906666 10.2205 0.58 11.1738 0.58C12.1272 0.58 12.7972 0.906666 13.1838 1.56C13.5772 2.20667 13.7738 3.10667 13.7738 4.26C13.7738 5.42667 13.5772 6.34 13.1838 7C12.7972 7.65333 12.1272 7.98 11.1738 7.98C10.2205 7.98 9.54716 7.65333 9.15383 7C8.76716 6.34 8.57383 5.42667 8.57383 4.26ZM12.6538 4.26C12.6538 3.72 12.6172 3.26333 12.5438 2.89C12.4772 2.51667 12.3372 2.21333 12.1238 1.98C11.9105 1.74 11.5938 1.62 11.1738 1.62C10.7538 1.62 10.4372 1.74 10.2238 1.98C10.0105 2.21333 9.86716 2.51667 9.79383 2.89C9.72716 3.26333 9.69383 3.72 9.69383 4.26C9.69383 4.82 9.72716 5.29 9.79383 5.67C9.8605 6.05 10.0005 6.35667 10.2138 6.59C10.4338 6.82333 10.7538 6.94 11.1738 6.94C11.5938 6.94 11.9105 6.82333 12.1238 6.59C12.3438 6.35667 12.4872 6.05 12.5538 5.67C12.6205 5.29 12.6538 4.82 12.6538 4.26ZM14.7301 1.75V0.71H16.8101V8H15.6601V1.75H14.7301Z" fill="#838383"/>
</svg>
